# xmcd
#
# Track frame offsets:
#  150
#  25417
#  41842
#  54020
#  70720
#  86087
#  104065
#  123485
#  135470
#
# Disc length: 2006 seconds
#
# Revision: 0
# Processed by: cddbd v1.5.1PL2 Copyright (c) Steve Scherf et al.
# Submitted via: Collectorz.com_Music_Collector 6.11
#
DISCID=7907d409
DTITLE=Etta James - Etta James
DYEAR=2006
DGENRE=Blues - Blues - Soul - Soul-Blues - R&B - Soul
TTITLE0=All The Way Down
TTITLE1=God's Song
TTITLE2=Only A Fool
TTITLE3=Down So Low
TTITLE4=Leave Your Hat On
TTITLE5=Sail Away
TTITLE6=Yesterday's Music
TTITLE7=Lay Back Daddy
TTITLE8=Just One More Day
EXTD=
EXTT0=
EXTT1=
EXTT2=
EXTT3=
EXTT4=
EXTT5=
EXTT6=
EXTT7=
EXTT8=
PLAYORDER=
